<svg viewBox="0 0 24 24" fill="none" xmlns="http://www.w3.org/2000/svg">
<path fill-rule="evenodd" clip-rule="evenodd" d="M6.32296 3.76758C7.99222 2.6166 9.97191 2.00024 11.9995 2.00024C14.0271 2.00024 16.0068 2.6166 17.6761 3.76758C19.3453 4.91856 20.6253 6.54977 21.3461 8.44489C22.067 10.34 22.1948 12.4095 21.7125 14.3789C21.2335 16.3347 20.1754 18.1 18.677 19.4441C18.6582 19.4622 18.6386 19.4797 18.6182 19.4965C16.7929 21.1121 14.4385 22.0031 12.0001 21.9999C9.55186 22.0033 7.18815 21.1055 5.35968 19.4777C5.35432 19.4731 5.34901 19.4683 5.34377 19.4636C3.83387 18.117 2.76781 16.3441 2.28653 14.3789C1.80424 12.4095 1.932 10.34 2.65289 8.44489C3.37377 6.54977 4.65371 4.91856 6.32296 3.76758ZM5.96967 17.2577C6.62217 16.6005 7.3797 16.0526 8.21353 15.6379C9.38996 15.0529 10.6861 14.7489 12 14.7499C13.3139 14.7489 14.6101 15.0529 15.7865 15.6379C16.6201 16.0525 17.3774 16.6002 18.0298 17.2572C18.8661 16.2978 19.4648 15.1488 19.7699 13.9032C20.1557 12.3277 20.0535 10.6721 19.4768 9.15596C18.9001 7.63987 17.8762 6.33489 16.5408 5.41411C15.2054 4.49333 13.6216 4.00024 11.9995 4.00024C10.3774 4.00024 8.79368 4.49333 7.45827 5.41411C6.12287 6.33489 5.09892 7.63987 4.52221 9.15596C3.9455 10.6721 3.84329 12.3277 4.22913 13.9032C4.53424 15.149 5.13312 16.2983 5.96967 17.2577ZM16.5353 18.5917C15.2087 19.5066 13.6284 20.0023 12.0014 20H11.9985C10.3714 20.0024 8.79103 19.5069 7.46434 18.5921C7.94574 18.1229 8.49861 17.7298 9.10413 17.4287C10.0036 16.9814 10.9946 16.749 11.9991 16.7499H12.0009C13.0054 16.749 13.9965 16.9814 14.8959 17.4287C15.5012 17.7298 16.054 18.1226 16.5353 18.5917ZM12 14.7499C12.0003 14.7499 12.0006 14.7499 12.0009 14.7499L12 15.7499L11.9991 14.7499C11.9994 14.7499 11.9997 14.7499 12 14.7499ZM12 7.74995C11.4696 7.74995 10.9609 7.96066 10.5858 8.33574C10.2107 8.71081 10 9.21952 10 9.74995C10 10.2804 10.2107 10.7891 10.5858 11.1642C10.9609 11.5392 11.4696 11.7499 12 11.7499C12.5304 11.7499 13.0392 11.5392 13.4142 11.1642C13.7893 10.7891 14 10.2804 14 9.74995C14 9.21952 13.7893 8.71081 13.4142 8.33574C13.0392 7.96066 12.5304 7.74995 12 7.74995ZM9.17159 6.92152C9.92173 6.17138 10.9391 5.74995 12 5.74995C13.0609 5.74995 14.0783 6.17138 14.8284 6.92152C15.5786 7.67167 16 8.68908 16 9.74995C16 10.8108 15.5786 11.8282 14.8284 12.5784C14.0783 13.3285 13.0609 13.7499 12 13.7499C10.9391 13.7499 9.92173 13.3285 9.17159 12.5784C8.42144 11.8282 8.00001 10.8108 8.00001 9.74995C8.00001 8.68908 8.42144 7.67167 9.17159 6.92152Z" fill="#F4F6FF"/>
</svg>
